<mxfile host="app.diagrams.net" modified="2024-10-09T16:41:33.814Z" agent="Mozilla/5.0 (X11; Linux x86_64) AppleWebKit/537.36 (KHTML, like Gecko) Chrome/128.0.0.0 Safari/537.36" version="24.3.0" etag="s2sIVE7PWD1-4e1QurBz" type="github">
  <diagram name="Page-1" id="uxJZsXnCdnv-F5YlmEWZ">
    <mxGraphModel>
      <root>
        <mxCell id="0" />
        <mxCell id="1" parent="0" />
      </root>
    </mxGraphModel>
  </diagram>
</mxfile>
